<svg width="206" height="45" viewBox="0 0 206 45" fill="none" xmlns="http://www.w3.org/2000/svg">
<path d="M37.296 11.5186C32.7118 11.5186 28.5238 13.556 26.26 16.9517C24.6187 13.3862 21.0533 11.5186 17.2048 11.5186C13.1866 11.462 9.56452 13.556 7.81008 16.7819V12.3675H0V43.2117H7.97986V26.3464C7.97986 21.7622 10.8096 18.8759 14.7146 18.8759C18.5065 18.8759 20.9401 21.5359 20.9401 26.12V43.2117H28.9199V26.2898C28.9199 21.7622 31.6931 18.8759 35.7113 18.8759C39.39 18.8759 41.8801 21.3661 41.8801 26.0634V43.2117H49.86V24.592C49.86 20.4606 48.6715 17.2913 46.2945 14.9709C43.9741 12.6505 40.9746 11.5186 37.296 11.5186Z" fill="white"/>
<path d="M49.9705 27.7613C49.9705 32.3455 51.4986 36.1939 54.6113 39.3066C57.724 42.4193 61.6856 44.004 66.4962 44.004C71.3068 44.004 75.2684 42.4193 78.3811 39.3066C81.4938 36.1939 82.3197 32.3455 82.3197 27.7613C82.3197 23.2337 81.4938 19.3853 78.3811 16.2725C75.2684 13.1032 71.3068 11.5186 66.4962 11.5186C61.6856 11.5186 57.724 13.1032 54.6113 16.2725C51.4986 19.3853 49.9705 23.2337 49.9705 27.7613ZM60.384 34.0433C58.7427 32.2889 57.9504 30.1949 57.9504 27.7613C57.9504 25.3277 58.7427 23.2337 60.384 21.5359C62.0252 19.838 64.0626 18.9891 66.4962 18.9891C68.9298 18.9891 70.9106 19.838 72.5518 21.5359C74.1931 23.2337 75.042 25.3277 75.042 27.7613C75.042 30.1949 74.1931 32.2889 72.5518 34.0433C70.9106 35.7412 68.9298 36.5901 66.4962 36.5901C64.0626 36.5901 62.0252 35.7412 60.384 34.0433Z" fill="white"/>
<path d="M82.3197 27.7613C82.3197 32.3455 83.4348 36.1939 86.5475 39.3066C89.6602 42.4193 93.6219 44.004 98.4324 44.004C103.243 44.004 107.205 42.4193 110.317 39.3066C113.43 36.1939 114.958 32.3455 114.958 27.7613C114.958 23.2337 113.43 19.3853 110.317 16.2725C107.205 13.1032 103.243 11.5186 98.4324 11.5186C93.6219 11.5186 89.6602 13.1032 86.5475 16.2725C83.4348 19.3853 82.3197 23.2337 82.3197 27.7613ZM92.3202 34.0433C90.679 32.2889 89.8866 30.1949 89.8866 27.7613C89.8866 25.3277 90.679 23.2337 92.3202 21.5359C93.9615 19.838 95.9989 18.9891 98.4324 18.9891C100.866 18.9891 102.847 19.838 104.488 21.5359C106.129 23.2337 106.978 25.3277 106.978 27.7613C106.978 30.1949 106.129 32.2889 104.488 34.0433C102.847 35.7412 100.866 36.5901 98.4324 36.5901C95.9989 36.5901 93.9615 35.7412 92.3202 34.0433Z" fill="white"/>
<path d="M127.293 32.3455L119.54 12.3675H110.767L124.124 43.1551H130.236L143.649 12.3675H134.877L127.293 32.3455Z" fill="white"/>
<path d="M159.931 11.5752C156.196 11.5752 153.084 13.0466 150.537 15.933V0.199631H142.557V43.2117H150.31V39.3632C152.857 42.4193 156.026 43.9474 159.931 43.9474C164.289 43.9474 167.968 42.4193 170.911 39.3632C173.854 36.2505 174.242 32.876 174.242 28.2918C174.242 23.7077 173.854 19.3853 170.911 16.2725C167.968 13.1598 164.289 11.5752 159.931 11.5752ZM150.197 27.7613C150.197 25.3277 150.99 23.2337 152.574 21.5359C154.159 19.7814 156.196 18.9325 158.686 18.9325C161.177 18.9325 163.214 19.7814 164.799 21.4793C166.383 23.1771 167.176 25.2711 167.176 27.7613C167.176 30.2515 166.383 32.3455 164.799 34.0999C163.214 35.7977 161.177 36.6467 158.686 36.6467C156.196 36.6467 154.159 35.7977 152.574 34.0999C150.99 32.3455 150.197 30.2515 150.197 27.7613Z" fill="#FFE500"/>
<path d="M205.758 27.0822C205.758 22.2716 204.287 18.5363 201.4 15.7632C198.514 12.9901 194.779 11.5752 190.308 11.5752C185.554 11.5752 181.705 13.1032 178.706 16.1594C175.706 19.2155 174.235 23.0639 174.235 27.7613C174.235 32.2323 175.65 36.0807 178.536 39.1934C181.422 42.3062 185.554 43.8908 190.987 43.8908C196.081 43.8908 200.552 42.4759 204.457 39.6462L201.287 34.0433C198.627 35.8543 194.666 37.156 191.327 37.156C186.459 37.156 183.46 34.9488 182.328 30.591H205.475C205.645 29.3459 205.758 28.1575 205.758 27.0822ZM190.308 18.1968C194.383 18.1968 197.269 20.6303 198.005 24.6486H182.328C183.29 20.6303 186.29 18.1968 190.308 18.1968Z" fill="#FFE500"/>
</svg>
